<?xml version="1.0" standalone="no"?>
<!DOCTYPE svg PUBLIC "-//W3C//DTD SVG 20010904//EN"
 "http://www.w3.org/TR/2001/REC-SVG-20010904/DTD/svg10.dtd">
<svg version="1.0" xmlns="http://www.w3.org/2000/svg"
 width="700.000000pt" height="700.000000pt" viewBox="0 0 700.000000 700.000000"
 preserveAspectRatio="xMidYMid meet">
<metadata>
Created by potrace 1.14, written by Peter Selinger 2001-2017
</metadata>
<g transform="translate(0.000000,700.000000) scale(0.100000,-0.100000)"
fill="#000000" stroke="none">
<path d="M2178 6495 c-2 -2 -18 -6 -36 -10 -184 -32 -386 -209 -487 -428 -37
-80 -79 -227 -92 -323 -18 -137 -8 -360 22 -504 68 -317 202 -567 416 -778
168 -166 333 -242 539 -248 191 -6 322 43 459 172 159 150 252 345 285 603 45
347 -48 738 -247 1041 -158 239 -359 400 -567 456 -57 15 -281 29 -292 19z"/>
<path d="M4570 6485 c-134 -27 -255 -90 -374 -196 -138 -123 -248 -269 -327
-434 -250 -521 -212 -1119 90 -1439 143 -150 280 -213 473 -214 276 -2 489
126 736 443 21 27 101 167 126 220 28 60 85 213 92 249 2 10 8 33 13 50 30 91
48 249 46 392 -3 194 -16 275 -70 426 -89 250 -275 437 -490 496 -83 23 -220
25 -315 7z"/>
<path d="M757 4594 c-214 -40 -371 -195 -456 -449 -72 -218 -66 -473 19 -734
109 -335 306 -603 575 -783 218 -146 538 -173 726 -61 141 84 256 248 303 429
27 106 28 117 31 254 8 367 -143 749 -408 1026 -130 136 -251 223 -387 277
-122 48 -279 64 -403 41z"/>
<path d="M6057 4603 c-1 -1 -25 -4 -52 -8 -300 -35 -653 -339 -817 -705 -16
-36 -33 -74 -39 -85 -19 -41 -68 -206 -85 -282 -22 -105 -27 -333 -8 -438 56
-314 261 -552 502 -581 269 -32 491 49 725 266 213 198 359 461 438 790 28
117 33 375 10 475 -8 33 -15 65 -17 70 -4 22 -53 142 -71 175 -95 178 -237
289 -404 316 -41 6 -178 12 -182 7z"/>
<path d="M3448 3375 c-2 -1 -32 -5 -68 -9 -71 -7 -76 -7 -170 -29 -205 -48
-486 -188 -740 -370 -435 -310 -808 -750 -1043 -1229 -53 -107 -127 -308 -142
-383 -38 -192 -44 -329 -18 -440 53 -231 232 -365 533 -402 87 -10 268 -7 350
6 41 7 84 14 95 16 73 12 306 77 510 144 273 90 322 104 420 127 267 61 425
57 695 -17 86 -23 131 -38 360 -119 167 -59 344 -115 390 -124 14 -2 59 -12
100 -21 87 -20 340 -28 440 -14 36 5 81 11 100 13 52 7 182 52 248 85 216 109
291 380 207 746 -23 101 -32 132 -55 190 -4 11 -14 36 -21 55 -79 216 -307
582 -504 810 -126 145 -319 336 -422 417 -20 15 -41 33 -47 38 -38 34 -186
142 -274 200 -88 57 -332 191 -355 194 -4 0 -24 8 -45 17 -54 22 -226 70 -302
83 -58 10 -235 22 -242 16z"/>
</g>
</svg>
